<mxfile host="app.diagrams.net" modified="2024-05-02T14:17:07.564Z" agent="Mozilla/5.0 (Windows NT 10.0; Win64; x64; rv:125.0) Gecko/20100101 Firefox/125.0" etag="WgV5bGpiy-KyDiCUcGLY" version="24.3.1" type="device" pages="2">
  <diagram name="Page-1" id="mnOCuoEilWp54GVWkJ5d">
    <mxGraphModel dx="664" dy="519" grid="1" gridSize="10" guides="1" tooltips="1" connect="1" arrows="1" fold="1" page="1" pageScale="1" pageWidth="850" pageHeight="1100" math="0" shadow="0">
      <root>
        <mxCell id="0" />
        <mxCell id="1" parent="0" />
        <mxCell id="H7dz42wl1O9n3fDa88-r-1" value="START" style="ellipse;whiteSpace=wrap;html=1;" vertex="1" parent="1">
          <mxGeometry x="240" y="20" width="120" height="40" as="geometry" />
        </mxCell>
        <mxCell id="H7dz42wl1O9n3fDa88-r-15" value="" style="edgeStyle=orthogonalEdgeStyle;rounded=0;orthogonalLoop=1;jettySize=auto;html=1;" edge="1" parent="1" source="H7dz42wl1O9n3fDa88-r-2" target="H7dz42wl1O9n3fDa88-r-5">
          <mxGeometry relative="1" as="geometry" />
        </mxCell>
        <mxCell id="H7dz42wl1O9n3fDa88-r-2" value="INPUT &lt;span style=&quot;white-space: pre;&quot;&gt;&#x9;&lt;/span&gt;n" style="shape=parallelogram;perimeter=parallelogramPerimeter;whiteSpace=wrap;html=1;fixedSize=1;" vertex="1" parent="1">
          <mxGeometry x="240" y="80" width="120" height="40" as="geometry" />
        </mxCell>
        <mxCell id="H7dz42wl1O9n3fDa88-r-5" value="result = n*n" style="rounded=0;whiteSpace=wrap;html=1;" vertex="1" parent="1">
          <mxGeometry x="240" y="150" width="120" height="60" as="geometry" />
        </mxCell>
        <mxCell id="H7dz42wl1O9n3fDa88-r-6" value="OUTPUT&amp;nbsp;result" style="shape=parallelogram;perimeter=parallelogramPerimeter;whiteSpace=wrap;html=1;fixedSize=1;" vertex="1" parent="1">
          <mxGeometry x="239" y="234" width="120" height="40" as="geometry" />
        </mxCell>
        <mxCell id="H7dz42wl1O9n3fDa88-r-8" value="END" style="ellipse;whiteSpace=wrap;html=1;" vertex="1" parent="1">
          <mxGeometry x="240" y="299" width="120" height="40" as="geometry" />
        </mxCell>
        <mxCell id="H7dz42wl1O9n3fDa88-r-12" value="" style="endArrow=classic;html=1;rounded=0;" edge="1" parent="1">
          <mxGeometry width="50" height="50" relative="1" as="geometry">
            <mxPoint x="298.5" y="60" as="sourcePoint" />
            <mxPoint x="298.5" y="80" as="targetPoint" />
            <Array as="points" />
          </mxGeometry>
        </mxCell>
        <mxCell id="H7dz42wl1O9n3fDa88-r-19" value="" style="edgeStyle=orthogonalEdgeStyle;rounded=0;orthogonalLoop=1;jettySize=auto;html=1;" edge="1" parent="1">
          <mxGeometry relative="1" as="geometry">
            <mxPoint x="299.5" y="212" as="sourcePoint" />
            <mxPoint x="299.5" y="232" as="targetPoint" />
          </mxGeometry>
        </mxCell>
        <mxCell id="H7dz42wl1O9n3fDa88-r-21" value="" style="edgeStyle=orthogonalEdgeStyle;rounded=0;orthogonalLoop=1;jettySize=auto;html=1;" edge="1" parent="1">
          <mxGeometry relative="1" as="geometry">
            <mxPoint x="299.5" y="277" as="sourcePoint" />
            <mxPoint x="299.5" y="297" as="targetPoint" />
          </mxGeometry>
        </mxCell>
      </root>
    </mxGraphModel>
  </diagram>
  <diagram id="1gR_KVASY113TMSVPu3l" name="Page-2">
    <mxGraphModel dx="664" dy="519" grid="1" gridSize="10" guides="1" tooltips="1" connect="1" arrows="1" fold="1" page="1" pageScale="1" pageWidth="850" pageHeight="1100" math="0" shadow="0">
      <root>
        <mxCell id="0" />
        <mxCell id="1" parent="0" />
        <mxCell id="8vVZplFp1R0siE2rAC9g-1" value="START" style="ellipse;whiteSpace=wrap;html=1;" vertex="1" parent="1">
          <mxGeometry x="279" y="111" width="120" height="40" as="geometry" />
        </mxCell>
        <mxCell id="8vVZplFp1R0siE2rAC9g-2" value="" style="edgeStyle=orthogonalEdgeStyle;rounded=0;orthogonalLoop=1;jettySize=auto;html=1;" edge="1" parent="1" source="8vVZplFp1R0siE2rAC9g-3" target="8vVZplFp1R0siE2rAC9g-4">
          <mxGeometry relative="1" as="geometry" />
        </mxCell>
        <mxCell id="8vVZplFp1R0siE2rAC9g-3" value="&lt;div&gt;INPUT &lt;span style=&quot;white-space: pre;&quot;&gt;&#x9;&lt;/span&gt;chiều dài = n&lt;/div&gt;&lt;div&gt;&amp;nbsp;&amp;nbsp;&amp;nbsp;&amp;nbsp;&amp;nbsp;&amp;nbsp;&amp;nbsp;&amp;nbsp;&amp;nbsp;&amp;nbsp;&amp;nbsp;&amp;nbsp;&amp;nbsp;&amp;nbsp;&amp;nbsp;&amp;nbsp;&amp;nbsp;&amp;nbsp; chiều rộng = m&lt;br&gt;&lt;/div&gt;" style="shape=parallelogram;perimeter=parallelogramPerimeter;whiteSpace=wrap;html=1;fixedSize=1;" vertex="1" parent="1">
          <mxGeometry x="240" y="171" width="190" height="40" as="geometry" />
        </mxCell>
        <mxCell id="8vVZplFp1R0siE2rAC9g-4" value="&lt;div&gt;cal: chu vi = (n+m)*2&lt;/div&gt;&lt;div&gt;&amp;nbsp;&amp;nbsp;&amp;nbsp;&amp;nbsp; diện tích = n*m&lt;br&gt;&lt;/div&gt;" style="rounded=0;whiteSpace=wrap;html=1;" vertex="1" parent="1">
          <mxGeometry x="275" y="241" width="120" height="60" as="geometry" />
        </mxCell>
        <mxCell id="8vVZplFp1R0siE2rAC9g-5" value="OUTPUT chu vi và diện tích" style="shape=parallelogram;perimeter=parallelogramPerimeter;whiteSpace=wrap;html=1;fixedSize=1;" vertex="1" parent="1">
          <mxGeometry x="249" y="325" width="172" height="40" as="geometry" />
        </mxCell>
        <mxCell id="8vVZplFp1R0siE2rAC9g-6" value="END" style="ellipse;whiteSpace=wrap;html=1;" vertex="1" parent="1">
          <mxGeometry x="276" y="390" width="120" height="40" as="geometry" />
        </mxCell>
        <mxCell id="8vVZplFp1R0siE2rAC9g-7" value="" style="endArrow=classic;html=1;rounded=0;" edge="1" parent="1">
          <mxGeometry width="50" height="50" relative="1" as="geometry">
            <mxPoint x="335.5" y="151" as="sourcePoint" />
            <mxPoint x="335.5" y="171" as="targetPoint" />
            <Array as="points" />
          </mxGeometry>
        </mxCell>
        <mxCell id="8vVZplFp1R0siE2rAC9g-8" value="" style="edgeStyle=orthogonalEdgeStyle;rounded=0;orthogonalLoop=1;jettySize=auto;html=1;" edge="1" parent="1">
          <mxGeometry relative="1" as="geometry">
            <mxPoint x="334.5" y="303" as="sourcePoint" />
            <mxPoint x="334.5" y="323" as="targetPoint" />
          </mxGeometry>
        </mxCell>
        <mxCell id="8vVZplFp1R0siE2rAC9g-9" value="" style="edgeStyle=orthogonalEdgeStyle;rounded=0;orthogonalLoop=1;jettySize=auto;html=1;" edge="1" parent="1">
          <mxGeometry relative="1" as="geometry">
            <mxPoint x="335.5" y="368" as="sourcePoint" />
            <mxPoint x="335.5" y="388" as="targetPoint" />
          </mxGeometry>
        </mxCell>
        <mxCell id="vIXRETH4hGvdzJWaItKM-1" value="Nhập vào chiều dài, rộng của hình chữ nhật. In ra chu vi, diện tích" style="text;html=1;align=center;verticalAlign=middle;resizable=0;points=[];autosize=1;strokeColor=none;fillColor=none;" vertex="1" parent="1">
          <mxGeometry x="150" y="51" width="380" height="30" as="geometry" />
        </mxCell>
      </root>
    </mxGraphModel>
  </diagram>
</mxfile>
